<?xml version="1.0" encoding="UTF-8" standalone="no"?>
<!-- Generator: Adobe Illustrator 12.0.1, SVG Export Plug-In . SVG Version: 6.00 Build 51448)  -->
<svg
   xmlns:dc="http://purl.org/dc/elements/1.1/"
   xmlns:cc="http://web.resource.org/cc/"
   xmlns:rdf="http://www.w3.org/1999/02/22-rdf-syntax-ns#"
   xmlns:svg="http://www.w3.org/2000/svg"
   xmlns="http://www.w3.org/2000/svg"
   xmlns:sodipodi="http://sodipodi.sourceforge.net/DTD/sodipodi-0.dtd"
   xmlns:inkscape="http://www.inkscape.org/namespaces/inkscape"
   version="1.1"
   id="Layer_1"
   width="231.534"
   height="77.281"
   viewBox="0 0 231.534 77.281"
   style="overflow:visible;enable-background:new 0 0 231.534 77.281;"
   xml:space="preserve"
   sodipodi:version="0.32"
   inkscape:version="0.44.1"
   sodipodi:docname="gamma-Aminobuttersäure - gamma-aminobutyric acid.svg"
   sodipodi:docbase="E:\Eigene Dateien"><metadata
   id="metadata42"><rdf:RDF><cc:Work
       rdf:about=""><dc:format>image/svg+xml</dc:format><dc:type
         rdf:resource="http://purl.org/dc/dcmitype/StillImage" /></cc:Work></rdf:RDF></metadata><defs
   id="defs40" /><sodipodi:namedview
   inkscape:window-height="573"
   inkscape:window-width="925"
   inkscape:pageshadow="2"
   inkscape:pageopacity="0.0"
   guidetolerance="10.0"
   gridtolerance="10.0"
   objecttolerance="10.0"
   borderopacity="1.0"
   bordercolor="#666666"
   pagecolor="#ffffff"
   id="base"
   inkscape:zoom="3.632296"
   inkscape:cx="115.767"
   inkscape:cy="38.640499"
   inkscape:window-x="154"
   inkscape:window-y="154"
   inkscape:current-layer="Layer_1" />
<path
   d="M 104.4221,48.1828 L 104.4221,46.2828 L 137.0546,65.1403 L 137.0546,66.99185 L 104.4221,48.1828 z "
   id="polygon3" />
<path
   d="M 169.6396,46.2828 L 169.6396,48.1828 L 137.0546,66.99185 L 137.0546,65.1403 L 169.6396,46.2828 z "
   id="polygon5" />
<g
   id="g7"
   transform="matrix(0.95,0,0,0.95,5.78835,1.93205)">
	<path
   d="M 198.631,68.619 C 198.631,65.767 199.397,63.534 200.929,61.92 C 202.461,60.307 204.439,59.5 206.862,59.5 C 208.449,59.5 209.88,59.879 211.153,60.637 C 212.426,61.395 213.398,62.452 214.067,63.808 C 214.735,65.164 215.069,66.702 215.069,68.42 C 215.069,70.162 214.717,71.722 214.014,73.097 C 213.31,74.473 212.313,75.514 211.024,76.221 C 209.734,76.928 208.342,77.282 206.85,77.282 C 205.232,77.282 203.786,76.891 202.512,76.11 C 201.238,75.329 200.273,74.262 199.616,72.91 C 198.959,71.558 198.631,70.127 198.631,68.619 z M 200.975,68.648 C 200.975,70.718 201.532,72.349 202.646,73.541 C 203.76,74.733 205.158,75.328 206.838,75.328 C 208.55,75.328 209.959,74.726 211.066,73.523 C 212.173,72.32 212.725,70.613 212.725,68.402 C 212.725,67.004 212.489,65.783 212.016,64.74 C 211.542,63.697 210.85,62.888 209.94,62.314 C 209.03,61.74 208.007,61.453 206.874,61.453 C 205.264,61.453 203.878,62.006 202.717,63.111 C 201.556,64.216 200.975,66.063 200.975,68.648 z "
   id="path9" />
	<path
   d="M 218.081,76.984 L 218.081,59.797 L 220.362,59.797 L 220.362,66.86 L 229.253,66.86 L 229.253,59.797 L 231.534,59.797 L 231.534,76.985 L 229.253,76.985 L 229.253,68.891 L 220.362,68.891 L 220.362,76.985 L 218.081,76.985 L 218.081,76.984 z "
   id="path11" />
</g>
<path
   d="M 194.1021,60.4378 L 193.2946,61.8153 L 169.6396,48.1828 L 169.6396,46.2828 L 194.1021,60.4378 z "
   id="polygon13" />
<g
   id="g15"
   transform="matrix(0.95,0,0,0.95,5.78835,1.93205)">
	<path
   d="M 164.282,9.119 C 164.282,6.267 165.048,4.034 166.579,2.42 C 168.112,0.807 170.089,0 172.513,0 C 174.099,0 175.53,0.379 176.804,1.137 C 178.077,1.895 179.048,2.952 179.717,4.308 C 180.386,5.664 180.72,7.202 180.72,8.92 C 180.72,10.662 180.368,12.222 179.664,13.597 C 178.96,14.973 177.964,16.014 176.675,16.721 C 175.384,17.428 173.993,17.782 172.501,17.782 C 170.882,17.782 169.437,17.391 168.163,16.61 C 166.888,15.829 165.923,14.762 165.267,13.41 C 164.61,12.058 164.282,10.627 164.282,9.119 z M 166.625,9.148 C 166.625,11.218 167.182,12.849 168.295,14.041 C 169.41,15.232 170.807,15.828 172.488,15.828 C 174.199,15.828 175.609,15.226 176.715,14.023 C 177.821,12.82 178.375,11.113 178.375,8.902 C 178.375,7.504 178.139,6.283 177.665,5.24 C 177.191,4.197 176.5,3.388 175.59,2.814 C 174.679,2.24 173.656,1.953 172.524,1.953 C 170.913,1.953 169.528,2.506 168.366,3.611 C 167.206,4.717 166.625,6.563 166.625,9.148 z "
   id="path17" />
</g>
<path
   d="M 166.0296,20.917801 L 167.64365,20.917801 L 167.64365,48.8478 L 166.0296,48.8478 L 166.0296,20.917801 z "
   id="rect19" />
<path
   d="M 171.6821,20.917801 L 173.2971,20.917801 L 173.2971,48.8478 L 171.6821,48.8478 L 171.6821,20.917801 z "
   id="rect21" />
<path
   d="M 71.7896,66.99185 L 71.7896,65.1403 L 104.4221,46.2828 L 104.4221,48.1828 L 71.7896,66.99185 z "
   id="polygon23" />
<g
   id="g25"
   transform="matrix(0.95,0,0,0.95,5.78835,1.93205)">
	<path
   d="M 0,57.135 L 0,39.947 L 2.281,39.947 L 2.281,47.01 L 11.172,47.01 L 11.172,39.947 L 13.453,39.947 L 13.453,57.135 L 11.172,57.135 L 11.172,49.041 L 2.281,49.041 L 2.281,57.135 L 0,57.135 L 0,57.135 z "
   id="path27" />
</g>
<g
   id="g29"
   transform="matrix(0.95,0,0,0.95,5.78835,1.93205)">
	<path
   d="M 23.774,60.119 L 23.774,61.635 L 15.243,61.635 C 15.231,61.254 15.293,60.888 15.429,60.535 C 15.647,59.955 15.996,59.385 16.477,58.823 C 16.957,58.261 17.647,57.612 18.547,56.875 C 19.943,55.723 20.889,54.812 21.387,54.142 C 21.885,53.472 22.134,52.838 22.134,52.239 C 22.134,51.613 21.909,51.085 21.459,50.655 C 21.009,50.225 20.422,50.01 19.699,50.01 C 18.933,50.01 18.322,50.239 17.863,50.698 C 17.404,51.156 17.172,51.792 17.166,52.603 L 15.541,52.431 C 15.652,51.216 16.072,50.289 16.801,49.652 C 17.529,49.015 18.507,48.697 19.735,48.697 C 20.974,48.697 21.955,49.04 22.677,49.726 C 23.399,50.412 23.76,51.261 23.76,52.276 C 23.76,52.793 23.654,53.299 23.443,53.797 C 23.232,54.295 22.88,54.819 22.39,55.371 C 21.899,55.922 21.086,56.679 19.95,57.64 C 18.999,58.437 18.388,58.978 18.117,59.261 C 17.846,59.546 17.621,59.831 17.444,60.118 L 23.774,60.118 L 23.774,60.119 z "
   id="path31" />
</g>
<g
   id="g33"
   transform="matrix(0.95,0,0,0.95,5.78835,1.93205)">
	<path
   d="M 25.773,57.135 L 25.773,39.947 L 28.113,39.947 L 37.117,53.435 L 37.117,39.947 L 39.305,39.947 L 39.305,57.135 L 36.965,57.135 L 27.96,43.646 L 27.96,57.135 L 25.773,57.135 L 25.773,57.135 z "
   id="path35" />
</g>
<path
   d="M 48.3721,53.5028 L 49.1796,52.0778 L 71.7896,65.1403 L 71.7896,66.99185 L 48.3721,53.5028 z "
   id="polygon37" />
</svg>